<?xml version="1.0" encoding="UTF-8"?>
<svg id="Layer_1" data-name="Layer 1" xmlns="http://www.w3.org/2000/svg" viewBox="0 0 90.36 95.25">
  <path d="M75.82,39.37c-4.67-17.25-22.09-26.85-38.73-23.04-16.46,3.77-27.85,20.33-24.41,37.23,3.73,18.32,21.53,29.55,39.35,25.29,17.13-4.1,28.68-21.42,23.79-39.48ZM64.5,68.99c-12.32,11.24-31.3,10.49-42.54-2.75-10.34-12.19-8.52-29.71,2.72-39.97,11.58-10.56,29.28-10.33,40.66.95,11.89,11.78,11.11,30.87-.84,41.77Z"/>
  <path d="M53.44,25.99h-.34c2.38,2.6,5.03,5.58,6.62,9,.91,1.94,1.77,3.89,2.7,5.93l-.08-3.65c-.01-.39.41-.64.74-.46,1.7.95,3.41,2.12,4.71,3.17.22.18.24.51.05.72l-3.55,3.98c-.21.23-.58.22-.77-.03l-1.22-1.58c.68,4.49.91,8.7-.56,12.93-.28-4.49-.36-7.99-1.54-11.68-.46,6.57.48,12.39-3.32,17.63,1.56-8.96,2.74-17.76-4.54-22.64,2.3,4.07,4.76,7.64,4.12,12.43-.04.26-.35.4-.57.26-4.82-3.08-5.34-8.14-8.2-13.4-.05,6.37,4.51,11.5,8.51,16.5.14,4.75-2.48,10.5-6.69,12.65,3.36-3.74,5.47-8.4,3.94-12.72-.92,6.95-4.03,12.06-10.01,14.2-5.33,1.9-11.49.52-15.88-3.09l5.51.43c.3.03.5-.3.35-.55-1.15-1.98-2-3.4-1.88-5.6l4.22,6.56c-.32-4.61-2.36-7.63-6.17-10.13.02,3.02.49,5.31,1.79,7.85-2.95-.27-4.97-.13-8,.17,5.41,4.72,9.69,6.49,16.36,6.7,2.64-.21,5.36-.8,7.24-1.37,6.86-2.7,9.59-5.55,13.32-9.88,3.04-4.04,4.5-8.02,3.96-13.07-.05-.45.09-.9.41-1.22,1.36-1.35,2.67-3.19,4.93-4.17.63-.15.89-.9.54-1.46-2.4-3.05-5.71-4.16-8.51-6.66-2.87-2.57-3.88-7.47-8.19-7.75Z"/>
  <path d="M42.42,41.15l2.42-3.9c-3.25,1.7-3.97,4.37-8.57,4.07l6.54-4c-5.85-.64-5.47,4.63-11.51,4.09,1.4,2.05,4.39,2.09,7.13,1.78-2.06,2.21-2.69,4.97-2.87,7.69-.05.67.51,1.25,1.19,1.2,4.09-.29,6.8-2.7,7.32-5.99-1.94,1.96-3.94,3.62-5.98,4.29-.24.08-.52-.06-.59-.31-.69-2.33.57-4.38,2.56-5.56,1.28-.75,4.34-.63,4.91.72,2.79,6.65,2.93,12.33-.1,18.61,4.53-4.06,4.05-9.51,3.02-14.95l2.22,3.34c.05-5.26-3.46-9.15-7.69-11.08Z"/>
  <path d="M29.22,34.49c1.8.5,4.57.92,5.96,1.57.6.28.76,1.05.33,1.55l-.78.9c.25.35.43.4.81.3,2.56-2.51,5.61-2.57,9.4-2.67-6.42-1.03-17.14-1.23-17.02-4.49.16-1.52,1.89-2.09,2.84-1.79l10.44,1.8-4.33-1.84c-.54-.22-.8-.84-.56-1.37,1.08-2.39,3.48-4.66,6.24-4.09,1.96.41,4.19.91,5.49-.05-4.28-2.81-10.12-1.75-12.83,2.38-2.89,4.4-5.38.17-7.94,3.73-.21.29-.33.71-.34,1.18-.02,1.36.98,2.52,2.29,2.89Z"/>
  <path d="M36.49,68.71c3.69.8,7.84-.43,10.53-3.04,2.53-2.45,4.24-6.5,3.44-10.18-1.33,7.81-6.22,11.98-13.97,13.21Z"/>
  <path d="M45.17,28.98s-1.11,0-1.08,2.33c0,1.17.11,2.99,1.19,2.99s1.06-1.65,1.06-2.84-.2-2.48-1.17-2.48Z"/>
</svg>